<!DOCTYPE svg PUBLIC "-//W3C//DTD SVG 20010904//EN" "http://www.w3.org/TR/2001/REC-SVG-20010904/DTD/svg10.dtd">
<svg version="1.0" xmlns="http://www.w3.org/2000/svg" width="177px" height="184px" viewBox="0 0 1770 1840" preserveAspectRatio="xMidYMid meet">
<g id="layer101" fill="#646ecc" stroke="none">
 <path d="M845 1811 c-11 -10 -105 -68 -210 -128 -104 -60 -290 -167 -412 -238 l-223 -128 0 -156 0 -156 63 -34 c110 -60 109 -53 18 -102 l-81 -44 0 -155 0 -155 423 -247 c233 -136 431 -250 440 -254 10 -3 162 79 419 227 222 127 420 242 441 256 l37 23 0 133 c0 72 -3 141 -6 152 -3 12 -37 37 -86 63 l-80 44 84 48 83 47 0 154 0 153 -240 138 c-424 244 -539 311 -590 345 -27 18 -52 33 -55 33 -3 0 -14 -8 -25 -19z m274 -434 c124 -74 256 -151 294 -171 61 -34 83 -56 57 -56 -5 0 -39 -18 -75 -40 -36 -22 -67 -40 -70 -40 -2 0 -37 20 -77 43 -213 127 -357 207 -373 207 -16 0 -221 -113 -383 -212 -35 -22 -67 -38 -71 -36 -32 15 -151 83 -151 88 0 3 83 51 183 107 100 57 234 134 297 172 63 38 121 69 129 70 7 1 115 -59 240 -132z m-158 -404 c44 -25 82 -50 85 -54 2 -4 -36 -30 -85 -58 l-89 -50 -86 47 c-47 26 -86 50 -86 53 0 3 18 14 40 24 22 10 61 33 87 51 27 18 49 33 51 33 1 1 39 -20 83 -46z m-309 -347 c119 -69 223 -126 230 -126 7 0 27 9 43 21 17 11 113 70 214 130 133 80 189 108 201 102 54 -28 140 -79 140 -84 0 -3 -129 -79 -287 -169 -159 -90 -295 -168 -304 -173 -11 -7 -91 34 -320 165 l-305 174 81 46 c44 25 82 45 85 43 3 -1 103 -59 222 -129z"/>
 </g>
<g id="layer102" fill="#959cda" stroke="none">
 <path d="M845 1811 c-11 -10 -105 -68 -210 -128 -104 -60 -290 -167 -412 -238 -122 -70 -221 -131 -218 -135 2 -4 57 -38 122 -75 65 -37 120 -71 123 -74 6 -9 165 -101 173 -101 8 0 251 -141 257 -150 3 -3 47 -30 98 -59 l92 -53 0 -139 c0 -76 -3 -139 -6 -139 -3 0 -90 49 -192 109 -103 59 -221 127 -262 149 -41 22 -109 60 -150 85 -179 109 -226 136 -245 142 -11 4 5 -8 35 -26 30 -17 68 -40 84 -49 l28 -17 -81 -44 c-44 -24 -81 -46 -81 -49 0 -3 46 -32 103 -65 56 -32 123 -73 148 -89 25 -17 174 -105 332 -196 l286 -165 1 -143 0 -144 -32 20 c-136 82 -831 482 -834 479 -3 -3 832 -492 859 -503 10 -3 162 79 419 227 222 127 420 242 441 256 l37 23 -2 143 -2 142 -3 -143 -4 -143 -32 19 c-18 11 -76 46 -130 78 -55 33 -120 72 -145 88 -26 16 -80 46 -121 68 -40 21 -116 65 -168 96 -52 31 -135 81 -184 110 l-89 54 0 139 c0 76 2 139 4 139 2 0 101 -56 220 -125 118 -69 217 -125 220 -125 7 0 190 -106 265 -154 101 -64 161 -98 161 -89 0 4 -37 28 -81 51 l-81 44 84 48 83 47 0 154 0 153 -263 152 c-334 192 -342 196 -342 191 0 -3 135 -83 300 -178 l300 -174 0 -142 c0 -79 -3 -143 -6 -143 -7 0 -188 105 -249 145 -40 26 -458 271 -500 293 -7 3 -7 2 0 -5 10 -11 301 -183 418 -247 61 -34 83 -56 57 -56 -5 0 -39 -18 -75 -40 -36 -22 -67 -40 -70 -40 -2 0 -37 20 -77 43 -213 127 -357 207 -373 207 -16 0 -221 -113 -383 -212 -35 -22 -67 -38 -71 -36 -32 15 -151 83 -151 88 0 3 53 34 117 70 65 36 200 113 302 173 101 59 189 107 193 107 5 0 29 -12 54 -26 24 -14 44 -23 44 -21 0 3 -22 18 -50 34 l-50 28 0 142 0 142 123 -71 c67 -39 125 -72 130 -75 4 -2 7 -2 7 0 0 3 -46 32 -102 66 -57 33 -116 69 -133 80 -37 25 -36 25 -60 2z m116 -838 c44 -25 82 -50 85 -54 2 -4 -36 -30 -85 -58 l-89 -50 -86 47 c-47 26 -86 50 -86 53 0 3 18 14 40 24 22 10 61 33 87 51 27 18 49 33 51 33 1 1 39 -20 83 -46z m-309 -347 c119 -69 223 -126 230 -126 7 0 27 9 43 21 17 11 113 70 214 130 133 80 189 108 201 102 54 -28 140 -79 140 -84 0 -3 -129 -79 -287 -169 -159 -90 -295 -168 -304 -173 -11 -7 -91 34 -320 165 l-305 174 81 46 c44 25 82 45 85 43 3 -1 103 -59 222 -129z"/>
 </g>

</svg>